<?xml version="1.0" encoding="UTF-8"?>
<svg width="170.7mm" height="138.68mm" version="1.1" viewBox="0 0 170.7 138.68" xmlns="http://www.w3.org/2000/svg" xmlns:cc="http://creativecommons.org/ns#" xmlns:dc="http://purl.org/dc/elements/1.1/" xmlns:rdf="http://www.w3.org/1999/02/22-rdf-syntax-ns#">
 <metadata>
  <rdf:RDF>
   <cc:Work rdf:about="">
    <dc:format>image/svg+xml</dc:format>
    <dc:type rdf:resource="http://purl.org/dc/dcmitype/StillImage"/>
    <dc:title/>
   </cc:Work>
  </rdf:RDF>
 </metadata>
 <text transform="translate(465.65 57.453)" fill="#000000" font-family="sans-serif" font-size="10.583px" style="line-height:1.25;shape-inside:url(#rect873);white-space:pre" xml:space="preserve"/>
 <path d="m15.791 10.871c-0.52242 0-0.98571 0.12375-1.3902 0.37092-0.39884 0.24155-0.71334 0.59533-0.94366 1.0616-0.2247 0.46063-0.33714 1.0111-0.33714 1.6515 0 0.64039 0.11244 1.1938 0.33714 1.66 0.23031 0.46063 0.54482 0.81441 0.94366 1.0616 0.40446 0.24155 0.86774 0.36234 1.3902 0.36234s0.98326-0.1208 1.3821-0.36234c0.40446-0.24717 0.71897-0.60095 0.94366-1.0616 0.23033-0.46625 0.34547-1.0196 0.34547-1.66 0-0.64039-0.11514-1.1908-0.34547-1.6515-0.22469-0.46625-0.53919-0.82003-0.94366-1.0616-0.39884-0.24717-0.85967-0.37092-1.3821-0.37092zm16.309 0c-0.52242 0-0.98596 0.12375-1.3904 0.37092-0.39884 0.24155-0.71334 0.59533-0.94366 1.0616-0.2247 0.46063-0.33716 1.0111-0.33716 1.6515 0 0.64039 0.11246 1.1938 0.33716 1.66 0.23031 0.46063 0.54482 0.81441 0.94366 1.0616 0.40446 0.24155 0.868 0.36234 1.3904 0.36234 0.52242 0 0.98301-0.1208 1.3818-0.36234 0.40446-0.24717 0.71896-0.60095 0.94366-1.0616 0.23031-0.46625 0.34547-1.0196 0.34547-1.66 0-0.64039-0.11516-1.1908-0.34547-1.6515-0.2247-0.46625-0.53919-0.82003-0.94366-1.0616-0.39884-0.24717-0.85942-0.37092-1.3818-0.37092zm5.8258 0c-0.52241 0-0.98596 0.12375-1.3904 0.37092-0.39884 0.24155-0.71334 0.59533-0.94366 1.0616-0.22469 0.46063-0.33689 1.0111-0.33689 1.6515 0 0.64039 0.1122 1.1938 0.33689 1.66 0.23031 0.46063 0.54482 0.81441 0.94366 1.0616 0.40446 0.24155 0.86801 0.36234 1.3904 0.36234 0.52242 0 0.98301-0.1208 1.3818-0.36234 0.40446-0.24717 0.71922-0.60095 0.94392-1.0616 0.23032-0.46625 0.34547-1.0196 0.34547-1.66 0-0.64039-0.11514-1.1908-0.34547-1.6515-0.2247-0.46625-0.53946-0.82003-0.94392-1.0616-0.39884-0.24717-0.85942-0.37092-1.3818-0.37092zm5.8258 0c-0.52242 0-0.98571 0.12375-1.3902 0.37092-0.39884 0.24155-0.7136 0.59533-0.94391 1.0616-0.2247 0.46063-0.33689 1.0111-0.33689 1.6515 0 0.64039 0.11219 1.1938 0.33689 1.66 0.23031 0.46063 0.54507 0.81441 0.94391 1.0616 0.40446 0.24155 0.86774 0.36234 1.3902 0.36234 0.52242 0 0.98326-0.1208 1.3821-0.36234 0.40446-0.24717 0.71897-0.60095 0.94366-1.0616 0.23032-0.46625 0.34547-1.0196 0.34547-1.66 0-0.64039-0.11514-1.1908-0.34547-1.6515-0.22469-0.46625-0.53919-0.82003-0.94366-1.0616-0.39884-0.24717-0.85967-0.37092-1.3821-0.37092zm5.8261 0c-0.52244 0-0.98597 0.12375-1.3904 0.37092-0.39885 0.24155-0.71334 0.59533-0.94366 1.0616-0.22471 0.46063-0.33716 1.0111-0.33716 1.6515 0 0.64039 0.11244 1.1938 0.33716 1.66 0.23031 0.46063 0.54481 0.81441 0.94366 1.0616 0.40445 0.24155 0.86798 0.36234 1.3904 0.36234 0.52241 0 0.98301-0.1208 1.3818-0.36234 0.40446-0.24717 0.71896-0.60095 0.94366-1.0616 0.23031-0.46625 0.34546-1.0196 0.34546-1.66 0-0.64039-0.11514-1.1908-0.34546-1.6515-0.2247-0.46625-0.53919-0.82003-0.94366-1.0616-0.39884-0.24717-0.85943-0.37092-1.3818-0.37092zm8.3602 0c-0.52242 0-0.98569 0.12375-1.3902 0.37092-0.39884 0.24155-0.7136 0.59533-0.94391 1.0616-0.2247 0.46063-0.33689 1.0111-0.33689 1.6515 0 0.64039 0.11219 1.1938 0.33689 1.66 0.23031 0.46063 0.54507 0.81441 0.94391 1.0616 0.40446 0.24155 0.86773 0.36234 1.3902 0.36234 0.52242 0 0.98302-0.1208 1.3819-0.36234 0.40445-0.24717 0.71921-0.60095 0.94391-1.0616 0.23031-0.46625 0.34547-1.0196 0.34547-1.66 0-0.64039-0.11516-1.1908-0.34547-1.6515-0.2247-0.46625-0.53946-0.82003-0.94391-1.0616-0.39884-0.24717-0.85943-0.37092-1.3819-0.37092zm12.788 0c-0.52241 0-0.98596 0.12375-1.3904 0.37092-0.39883 0.24155-0.71334 0.59533-0.94365 1.0616-0.2247 0.46063-0.33716 1.0111-0.33716 1.6515 0 0.64039 0.11246 1.1938 0.33716 1.66 0.23031 0.46063 0.54482 0.81441 0.94365 1.0616 0.40445 0.24155 0.868 0.36234 1.3904 0.36234 0.52242 0 0.98301-0.1208 1.3819-0.36234 0.40445-0.24717 0.71895-0.60095 0.94365-1.0616 0.23031-0.46625 0.34545-1.0196 0.34545-1.66 0-0.64039-0.11514-1.1908-0.34545-1.6515-0.2247-0.46625-0.5392-0.82003-0.94365-1.0616-0.39885-0.24717-0.85944-0.37092-1.3819-0.37092zm12.787 0c-0.52242 0-0.98596 0.12375-1.3904 0.37092-0.39884 0.24155-0.71334 0.59533-0.94366 1.0616-0.2247 0.46063-0.33689 1.0111-0.33689 1.6515 0 0.64039 0.11219 1.1938 0.33689 1.66 0.23031 0.46063 0.54482 0.81441 0.94366 1.0616 0.40446 0.24155 0.868 0.36234 1.3904 0.36234 0.52241 0 0.983-0.1208 1.3818-0.36234 0.40445-0.24717 0.71896-0.60095 0.94366-1.0616 0.23031-0.46625 0.34572-1.0196 0.34572-1.66 0-0.64039-0.11541-1.1908-0.34572-1.6515-0.2247-0.46625-0.53921-0.82003-0.94366-1.0616-0.39885-0.24717-0.85943-0.37092-1.3818-0.37092zm5.8258 0c-0.52242 0-0.98569 0.12375-1.3902 0.37092-0.39883 0.24155-0.7136 0.59533-0.94392 1.0616-0.22468 0.46063-0.33689 1.0111-0.33689 1.6515 0 0.64039 0.1122 1.1938 0.33689 1.66 0.23032 0.46063 0.54509 0.81441 0.94392 1.0616 0.40446 0.24155 0.86774 0.36234 1.3902 0.36234 0.52242 0 0.983-0.1208 1.3818-0.36234 0.40446-0.24717 0.71922-0.60095 0.94392-1.0616 0.23031-0.46625 0.34547-1.0196 0.34547-1.66 0-0.64039-0.11516-1.1908-0.34547-1.6515-0.2247-0.46625-0.53946-0.82003-0.94392-1.0616-0.39884-0.24717-0.85942-0.37092-1.3818-0.37092zm-70.678 0.13481v1.5h1.0112v4.3983h1.9886v-5.8983zm3.5219 0v1.5h1.0112v4.3983h1.9884v-5.8983zm3.5219 0v1.5h1.0112v4.3983h1.9884v-5.8983zm35.104 0v1.5h1.0112v4.3983h1.9884v-5.8983zm3.5219 0v1.5h1.0109v4.3983h1.9886v-5.8983zm9.2654 0v1.5h1.0112v4.3983h1.9886v-5.8983zm3.5219 0v1.5h1.0112v4.3983h1.9886v-5.8983zm-61.327 1.4577c0.44939 0 0.6743 0.49717 0.6743 1.4915 0 0.99429-0.22491 1.4915-0.6743 1.4915-0.4494 0-0.67404-0.49717-0.67404-1.4915 0-0.99429 0.22465-1.4915 0.67404-1.4915zm16.309 0c0.4494 0 0.67403 0.49717 0.67403 1.4915 0 0.99429-0.22463 1.4915-0.67403 1.4915s-0.67405-0.49717-0.67405-1.4915c0-0.99429 0.22465-1.4915 0.67405-1.4915zm5.8258 0c0.4494 0 0.67404 0.49717 0.67404 1.4915 0 0.99429-0.22465 1.4915-0.67404 1.4915-0.44939 0-0.67403-0.49717-0.67403-1.4915 0-0.99429 0.22465-1.4915 0.67403-1.4915zm5.8258 0c0.44938 0 0.6743 0.49717 0.6743 1.4915 0 0.99429-0.22491 1.4915-0.6743 1.4915-0.4494 0-0.67405-0.49717-0.67405-1.4915 0-0.99429 0.22465-1.4915 0.67405-1.4915zm5.8261 0c0.44939 0 0.67403 0.49717 0.67403 1.4915 0 0.99429-0.22465 1.4915-0.67403 1.4915-0.4494 0-0.67431-0.49717-0.67431-1.4915 0-0.99429 0.22491-1.4915 0.67431-1.4915zm8.3602 0c0.4494 0 0.67404 0.49717 0.67404 1.4915 0 0.99429-0.22465 1.4915-0.67404 1.4915s-0.67403-0.49717-0.67403-1.4915c0-0.99429 0.22463-1.4915 0.67403-1.4915zm12.788 0c0.4494 0 0.67405 0.49717 0.67405 1.4915 0 0.99429-0.22465 1.4915-0.67405 1.4915-0.44938 0-0.6743-0.49717-0.6743-1.4915 0-0.99429 0.22492-1.4915 0.6743-1.4915zm12.787 0c0.4494 0 0.67403 0.49717 0.67403 1.4915 0 0.99429-0.22464 1.4915-0.67403 1.4915s-0.67404-0.49717-0.67404-1.4915c0-0.99429 0.22464-1.4915 0.67404-1.4915zm5.8258 0c0.4494 0 0.6743 0.49717 0.6743 1.4915 0 0.99429-0.2249 1.4915-0.6743 1.4915s-0.67403-0.49717-0.67403-1.4915c0-0.99429 0.22463-1.4915 0.67403-1.4915zm-73.548 8.9973c-0.52242 0-0.98571 0.12349-1.3902 0.37066-0.39884 0.24155-0.71334 0.59559-0.94366 1.0618-0.2247 0.46063-0.33714 1.0111-0.33714 1.6515 0 0.64039 0.11244 1.1935 0.33714 1.6598 0.23031 0.46063 0.54482 0.81467 0.94366 1.0618 0.40446 0.24155 0.86774 0.36234 1.3902 0.36234s0.98326-0.12079 1.3821-0.36234c0.40446-0.24717 0.71897-0.60121 0.94366-1.0618 0.23033-0.46625 0.34547-1.0194 0.34547-1.6598 0-0.64039-0.11514-1.1908-0.34547-1.6515-0.22469-0.46625-0.53919-0.82029-0.94366-1.0618-0.39884-0.24717-0.85967-0.37066-1.3821-0.37066zm12.788 0c-0.52242 0-0.98596 0.12349-1.3904 0.37066-0.39884 0.24155-0.71334 0.59559-0.94366 1.0618-0.2247 0.46063-0.33716 1.0111-0.33716 1.6515 0 0.64039 0.11246 1.1935 0.33716 1.6598 0.23031 0.46063 0.54482 0.81467 0.94366 1.0618 0.40446 0.24155 0.868 0.36234 1.3904 0.36234 0.52241 0 0.98299-0.12079 1.3818-0.36234 0.40445-0.24717 0.71896-0.60121 0.94366-1.0618 0.23031-0.46625 0.34546-1.0194 0.34546-1.6598 0-0.64039-0.11514-1.1908-0.34546-1.6515-0.2247-0.46625-0.53921-0.82029-0.94366-1.0618-0.39885-0.24717-0.85943-0.37066-1.3818-0.37066zm5.8258 0c-0.52242 0-0.98571 0.12349-1.3902 0.37066-0.39884 0.24155-0.7136 0.59559-0.94392 1.0618-0.2247 0.46063-0.33689 1.0111-0.33689 1.6515 0 0.64039 0.11219 1.1935 0.33689 1.6598 0.23032 0.46063 0.54508 0.81467 0.94392 1.0618 0.40445 0.24155 0.86773 0.36234 1.3902 0.36234 0.52242 0 0.98301-0.12079 1.3818-0.36234 0.40446-0.24717 0.71922-0.60121 0.94392-1.0618 0.23031-0.46625 0.34545-1.0194 0.34545-1.6598 0-0.64039-0.11514-1.1908-0.34545-1.6515-0.2247-0.46625-0.53946-0.82029-0.94392-1.0618-0.39884-0.24717-0.85942-0.37066-1.3818-0.37066zm9.2656 0c-0.52242 0-0.98596 0.12349-1.3904 0.37066-0.39884 0.24155-0.71334 0.59559-0.94366 1.0618-0.2247 0.46063-0.33716 1.0111-0.33716 1.6515 0 0.64039 0.11246 1.1935 0.33716 1.6598 0.23031 0.46063 0.54482 0.81467 0.94366 1.0618 0.40446 0.24155 0.868 0.36234 1.3904 0.36234s0.98301-0.12079 1.3818-0.36234c0.40446-0.24717 0.71896-0.60121 0.94366-1.0618 0.23032-0.46625 0.34547-1.0194 0.34547-1.6598 0-0.64039-0.11514-1.1908-0.34547-1.6515-0.2247-0.46625-0.53919-0.82029-0.94366-1.0618-0.39884-0.24717-0.85942-0.37066-1.3818-0.37066zm11.8 0c-0.52241 0-0.98569 0.12349-1.3902 0.37066-0.39884 0.24155-0.7136 0.59559-0.94391 1.0618-0.2247 0.46063-0.33689 1.0111-0.33689 1.6515 0 0.64039 0.11219 1.1935 0.33689 1.6598 0.23031 0.46063 0.54507 0.81467 0.94391 1.0618 0.40446 0.24155 0.86774 0.36234 1.3902 0.36234 0.52242 0 0.98327-0.12079 1.3821-0.36234 0.40445-0.24717 0.71896-0.60121 0.94366-1.0618 0.23031-0.46625 0.34547-1.0194 0.34547-1.6598 0-0.64039-0.11516-1.1908-0.34547-1.6515-0.2247-0.46625-0.53921-0.82029-0.94366-1.0618-0.39884-0.24717-0.85968-0.37066-1.3821-0.37066zm12.788 0c-0.52242 0-0.98596 0.12349-1.3904 0.37066-0.39883 0.24155-0.71334 0.59559-0.94365 1.0618-0.2247 0.46063-0.33716 1.0111-0.33716 1.6515 0 0.64039 0.11246 1.1935 0.33716 1.6598 0.23031 0.46063 0.54482 0.81467 0.94365 1.0618 0.40445 0.24155 0.86799 0.36234 1.3904 0.36234 0.52243 0 0.98301-0.12079 1.3819-0.36234 0.40445-0.24717 0.71894-0.60121 0.94365-1.0618 0.23031-0.46625 0.34546-1.0194 0.34546-1.6598 0-0.64039-0.11514-1.1908-0.34546-1.6515-0.22471-0.46625-0.53921-0.82029-0.94365-1.0618-0.39885-0.24717-0.85943-0.37066-1.3819-0.37066zm5.8258 0c-0.52243 0-0.98596 0.12349-1.3904 0.37066-0.39883 0.24155-0.71334 0.59559-0.94365 1.0618-0.2247 0.46063-0.33716 1.0111-0.33716 1.6515 0 0.64039 0.11246 1.1935 0.33716 1.6598 0.23031 0.46063 0.54482 0.81467 0.94365 1.0618 0.40446 0.24155 0.868 0.36234 1.3904 0.36234 0.52241 0 0.98299-0.12079 1.3818-0.36234 0.40445-0.24717 0.71895-0.60121 0.94365-1.0618 0.23031-0.46625 0.34572-1.0194 0.34572-1.6598 0-0.64039-0.11541-1.1908-0.34572-1.6515-0.2247-0.46625-0.5392-0.82029-0.94365-1.0618-0.39885-0.24717-0.85944-0.37066-1.3818-0.37066zm5.8258 0c-0.52242 0-0.98569 0.12349-1.3902 0.37066-0.39884 0.24155-0.7136 0.59559-0.94392 1.0618-0.22468 0.46063-0.33689 1.0111-0.33689 1.6515 0 0.64039 0.1122 1.1935 0.33689 1.6598 0.23033 0.46063 0.54509 0.81467 0.94392 1.0618 0.40446 0.24155 0.86773 0.36234 1.3902 0.36234s0.98301-0.12079 1.3818-0.36234c0.40446-0.24717 0.71922-0.60121 0.94392-1.0618 0.23031-0.46625 0.34547-1.0194 0.34547-1.6598 0-0.64039-0.11516-1.1908-0.34547-1.6515-0.2247-0.46625-0.53946-0.82029-0.94392-1.0618-0.39883-0.24717-0.85942-0.37066-1.3818-0.37066zm5.8261 0c-0.52243 0-0.98596 0.12349-1.3904 0.37066-0.39883 0.24155-0.71333 0.59559-0.94365 1.0618-0.22469 0.46063-0.33714 1.0111-0.33714 1.6515 0 0.64039 0.11246 1.1935 0.33714 1.6598 0.23032 0.46063 0.54482 0.81467 0.94365 1.0618 0.40446 0.24155 0.868 0.36234 1.3904 0.36234 0.52242 0 0.983-0.12079 1.3818-0.36234 0.40446-0.24717 0.71895-0.60121 0.94365-1.0618 0.23031-0.46625 0.34547-1.0194 0.34547-1.6598 0-0.64039-0.11515-1.1908-0.34547-1.6515-0.2247-0.46625-0.5392-0.82029-0.94365-1.0618-0.39884-0.24717-0.85942-0.37066-1.3818-0.37066zm-67.074 0.13481v1.4998h1.0112v4.3985h1.9886v-5.8983zm3.5219 0v1.4998h1.0112v4.3985h1.9884v-5.8983zm15.091 0v1.4998h1.0109v4.3985h1.9886v-5.8983zm9.2654 0v1.4998h1.0112v4.3985h1.9886v-5.8983zm11.8 0v1.4998h1.0112v4.3985h1.9884v-5.8983zm3.5219 0v1.4998h1.0112v4.3985h1.9883v-5.8983zm26.743 0v1.4998h1.0112v4.3985h1.9886v-5.8983zm-72.814 1.4577c0.44939 0 0.6743 0.49717 0.6743 1.4915s-0.22491 1.4915-0.6743 1.4915c-0.4494 0-0.67404-0.49717-0.67404-1.4915s0.22465-1.4915 0.67404-1.4915zm12.788 0c0.4494 0 0.67403 0.49717 0.67403 1.4915s-0.22463 1.4915-0.67403 1.4915-0.67404-0.49717-0.67404-1.4915 0.22465-1.4915 0.67404-1.4915zm5.8258 0c0.4494 0 0.67404 0.49717 0.67404 1.4915s-0.22465 1.4915-0.67404 1.4915c-0.44939 0-0.67405-0.49717-0.67405-1.4915s0.22466-1.4915 0.67405-1.4915zm9.2656 0c0.44939 0 0.67403 0.49717 0.67403 1.4915s-0.22465 1.4915-0.67403 1.4915c-0.4494 0-0.6743-0.49717-0.6743-1.4915s0.2249-1.4915 0.6743-1.4915zm11.8 0c0.4494 0 0.67427 0.49717 0.67431 1.4915 0 0.99429-0.22491 1.4915-0.67431 1.4915-0.44939 0-0.67403-0.49717-0.67403-1.4915s0.22465-1.4915 0.67403-1.4915zm12.788 0c0.4494 0 0.67405 0.49717 0.67405 1.4915s-0.22465 1.4915-0.67405 1.4915-0.67403-0.49717-0.67403-1.4915 0.22463-1.4915 0.67403-1.4915zm5.8258 0c0.44938 0 0.67403 0.49717 0.67403 1.4915s-0.22464 1.4915-0.67403 1.4915c-0.4494 0-0.67405-0.49717-0.67405-1.4915s0.22465-1.4915 0.67405-1.4915zm5.8258 0c0.4494 0 0.67405 0.49717 0.67405 1.4915s-0.22465 1.4915-0.67405 1.4915-0.67403-0.49717-0.67403-1.4915 0.22463-1.4915 0.67403-1.4915zm5.8261 0c0.4494 0 0.67404 0.49717 0.67404 1.4915s-0.22464 1.4915-0.67404 1.4915-0.6743-0.49717-0.6743-1.4915 0.2249-1.4915 0.6743-1.4915zm-69.944 8.9971c-0.52242 0-0.98571 0.12375-1.3902 0.37092-0.39884 0.24155-0.71334 0.59533-0.94366 1.0616-0.2247 0.46063-0.33714 1.0111-0.33714 1.6515 0 0.64039 0.11244 1.1938 0.33714 1.66 0.23031 0.46063 0.54482 0.81441 0.94366 1.0616 0.40446 0.24155 0.86774 0.36234 1.3902 0.36234s0.98326-0.1208 1.3821-0.36234c0.40446-0.24717 0.71897-0.60095 0.94366-1.0616 0.23033-0.46625 0.34547-1.0196 0.34547-1.66 0-0.64039-0.11514-1.1908-0.34547-1.6515-0.22469-0.46625-0.53919-0.82003-0.94366-1.0616-0.39884-0.24717-0.85967-0.37092-1.3821-0.37092zm16.309 0c-0.52242 0-0.98596 0.12375-1.3904 0.37092-0.39884 0.24155-0.71334 0.59533-0.94366 1.0616-0.2247 0.46063-0.33716 1.0111-0.33716 1.6515 0 0.64039 0.11246 1.1938 0.33716 1.66 0.23031 0.46063 0.54482 0.81441 0.94366 1.0616 0.40446 0.24155 0.868 0.36234 1.3904 0.36234 0.52242 0 0.98301-0.1208 1.3818-0.36234 0.40446-0.24717 0.71896-0.60095 0.94366-1.0616 0.23031-0.46625 0.34547-1.0196 0.34547-1.66 0-0.64039-0.11516-1.1908-0.34547-1.6515-0.2247-0.46625-0.53919-0.82003-0.94366-1.0616-0.39884-0.24717-0.85942-0.37092-1.3818-0.37092zm5.8258 0c-0.52241 0-0.98596 0.12375-1.3904 0.37092-0.39884 0.24155-0.71334 0.59533-0.94366 1.0616-0.22469 0.46063-0.33689 1.0111-0.33689 1.6515 0 0.64039 0.1122 1.1938 0.33689 1.66 0.23031 0.46063 0.54482 0.81441 0.94366 1.0616 0.40446 0.24155 0.86801 0.36234 1.3904 0.36234 0.52242 0 0.98301-0.1208 1.3818-0.36234 0.40446-0.24717 0.71922-0.60095 0.94392-1.0616 0.23032-0.46625 0.34547-1.0196 0.34547-1.66 0-0.64039-0.11514-1.1908-0.34547-1.6515-0.2247-0.46625-0.53946-0.82003-0.94392-1.0616-0.39884-0.24717-0.85942-0.37092-1.3818-0.37092zm15.322 0c-0.52242 0-0.98597 0.12375-1.3904 0.37092-0.39884 0.24155-0.71334 0.59533-0.94366 1.0616-0.2247 0.46063-0.33716 1.0111-0.33716 1.6515 0 0.64039 0.11246 1.1938 0.33716 1.66 0.23031 0.46063 0.54482 0.81441 0.94366 1.0616 0.40445 0.24155 0.868 0.36234 1.3904 0.36234 0.52242 0 0.98301-0.1208 1.3818-0.36234 0.40445-0.24717 0.71896-0.60095 0.94366-1.0616 0.23031-0.46625 0.34545-1.0196 0.34545-1.66 0-0.64039-0.11514-1.1908-0.34545-1.6515-0.2247-0.46625-0.53921-0.82003-0.94366-1.0616-0.39884-0.24717-0.85942-0.37092-1.3818-0.37092zm12.787 0c-0.52242 0-0.98571 0.12375-1.3902 0.37092-0.39885 0.24155-0.71361 0.59533-0.94392 1.0616-0.2247 0.46063-0.33689 1.0111-0.33689 1.6515 0 0.64039 0.11219 1.1938 0.33689 1.66 0.23031 0.46063 0.54507 0.81441 0.94392 1.0616 0.40445 0.24155 0.86774 0.36234 1.3902 0.36234 0.52242 0 0.983-0.1208 1.3818-0.36234 0.40446-0.24717 0.71922-0.60095 0.94392-1.0616 0.23031-0.46625 0.34545-1.0196 0.34545-1.66 0-0.64039-0.11514-1.1908-0.34545-1.6515-0.2247-0.46625-0.53946-0.82003-0.94392-1.0616-0.39884-0.24717-0.85942-0.37092-1.3818-0.37092zm5.8258 0c-0.52241 0-0.98569 0.12375-1.3902 0.37092-0.39884 0.24155-0.71333 0.59533-0.94365 1.0616-0.2247 0.46063-0.33714 1.0111-0.33714 1.6515 0 0.64039 0.11244 1.1938 0.33714 1.66 0.23032 0.46063 0.54482 0.81441 0.94365 1.0616 0.40446 0.24155 0.86774 0.36234 1.3902 0.36234 0.52242 0 0.98327-0.1208 1.3821-0.36234 0.40446-0.24717 0.71896-0.60095 0.94366-1.0616 0.23031-0.46625 0.34547-1.0196 0.34547-1.66 0-0.64039-0.11516-1.1908-0.34547-1.6515-0.2247-0.46625-0.5392-0.82003-0.94366-1.0616-0.39883-0.24717-0.85968-0.37092-1.3821-0.37092zm9.2656 0c-0.52241 0-0.98596 0.12375-1.3904 0.37092-0.39883 0.24155-0.71334 0.59533-0.94365 1.0616-0.22468 0.46063-0.33714 1.0111-0.33714 1.6515 0 0.64039 0.11246 1.1938 0.33714 1.66 0.23031 0.46063 0.54482 0.81441 0.94365 1.0616 0.40446 0.24155 0.86801 0.36234 1.3904 0.36234 0.52242 0 0.983-0.1208 1.3818-0.36234 0.40446-0.24717 0.71895-0.60095 0.94365-1.0616 0.23032-0.46625 0.34547-1.0196 0.34547-1.66 0-0.64039-0.11514-1.1908-0.34547-1.6515-0.2247-0.46625-0.53919-0.82003-0.94365-1.0616-0.39884-0.24717-0.85942-0.37092-1.3818-0.37092zm-62.465 0.13481v1.5h1.0112v4.3983h1.9886v-5.8983zm3.5219 0v1.5h1.0112v4.3983h1.9884v-5.8983zm3.5219 0v1.5h1.0112v4.3983h1.9884v-5.8983zm15.091 0v1.5h1.0112v4.3983h1.9886v-5.8983zm3.5219 0v1.5h1.0112v4.3983h1.9886v-5.8983zm11.8 0v1.5h1.0112v4.3983h1.9886v-5.8983zm3.5219 0v1.5h1.0112v4.3983h1.9886v-5.8983zm15.091 0v1.5h1.0112v4.3983h1.9886v-5.8983zm9.2654 0v1.5h1.0112v4.3983h1.9886v-5.8983zm-68.206 1.4577c0.44939 0 0.6743 0.49717 0.6743 1.4915s-0.22491 1.4915-0.6743 1.4915c-0.4494 0-0.67404-0.49717-0.67404-1.4915s0.22465-1.4915 0.67404-1.4915zm16.309 0c0.4494 0 0.67403 0.49717 0.67403 1.4915s-0.22463 1.4915-0.67403 1.4915-0.67405-0.49717-0.67405-1.4915 0.22465-1.4915 0.67405-1.4915zm5.8258 0c0.4494 0 0.67404 0.49717 0.67404 1.4915s-0.22465 1.4915-0.67404 1.4915c-0.44939 0-0.67403-0.49717-0.67403-1.4915s0.22465-1.4915 0.67403-1.4915zm15.322 0c0.4494 0 0.67403 0.49717 0.67403 1.4915s-0.22463 1.4915-0.67403 1.4915-0.67404-0.49717-0.67404-1.4915 0.22465-1.4915 0.67404-1.4915zm12.787 0c0.4494 0 0.67404 0.49717 0.67404 1.4915s-0.22464 1.4915-0.67404 1.4915c-0.44938 0-0.67404-0.49717-0.67404-1.4915s0.22466-1.4915 0.67404-1.4915zm5.8258 0c0.4494 0 0.67431 0.49717 0.67431 1.4915s-0.22491 1.4915-0.67431 1.4915-0.67403-0.49717-0.67403-1.4915 0.22463-1.4915 0.67403-1.4915zm9.2656 0c0.4494 0 0.67404 0.49717 0.67404 1.4915s-0.22464 1.4915-0.67404 1.4915-0.67403-0.49717-0.67403-1.4915 0.22463-1.4915 0.67403-1.4915zm-65.336 8.9973c-0.52242 0-0.98571 0.12349-1.3902 0.37066-0.39884 0.24155-0.71334 0.59559-0.94366 1.0618-0.2247 0.46063-0.33714 1.0111-0.33714 1.6515 0 0.64039 0.11244 1.1938 0.33714 1.66 0.23031 0.46063 0.54482 0.81441 0.94366 1.0616 0.40446 0.24155 0.86774 0.36234 1.3902 0.36234s0.98326-0.1208 1.3821-0.36234c0.40446-0.24717 0.71897-0.60095 0.94366-1.0616 0.23033-0.46625 0.34547-1.0196 0.34547-1.66 0-0.64039-0.11514-1.1908-0.34547-1.6515-0.22469-0.46625-0.53919-0.82029-0.94366-1.0618-0.39884-0.24717-0.85967-0.37066-1.3821-0.37066zm5.8261 0c-0.52244 0-0.98597 0.12349-1.3904 0.37066-0.39885 0.24155-0.71334 0.59559-0.94366 1.0618-0.22471 0.46063-0.33716 1.0111-0.33716 1.6515 0 0.64039 0.11244 1.1938 0.33716 1.66 0.23031 0.46063 0.5448 0.81441 0.94366 1.0616 0.40445 0.24155 0.86798 0.36234 1.3904 0.36234 0.52241 0 0.98301-0.1208 1.3818-0.36234 0.40445-0.24717 0.71896-0.60095 0.94366-1.0616 0.23031-0.46625 0.34546-1.0196 0.34546-1.66 0-0.64039-0.11514-1.1908-0.34546-1.6515-0.2247-0.46625-0.53921-0.82029-0.94366-1.0618-0.39884-0.24717-0.85943-0.37066-1.3818-0.37066zm9.2654 0c-0.52242 0-0.98571 0.12349-1.3902 0.37066-0.39885 0.24155-0.7136 0.59559-0.94392 1.0618-0.2247 0.46063-0.33689 1.0111-0.33689 1.6515 0 0.64039 0.11219 1.1938 0.33689 1.66 0.23032 0.46063 0.54507 0.81441 0.94392 1.0616 0.40445 0.24155 0.86773 0.36234 1.3902 0.36234 0.52241 0 0.98299-0.1208 1.3818-0.36234 0.40445-0.24717 0.71922-0.60095 0.94392-1.0616 0.23031-0.46625 0.34545-1.0196 0.34545-1.66 0-0.64039-0.11514-1.1908-0.34545-1.6515-0.2247-0.46625-0.53947-0.82029-0.94392-1.0618-0.39885-0.24717-0.85943-0.37066-1.3818-0.37066zm5.8258 0c-0.52242 0-0.98569 0.12349-1.3902 0.37066-0.39884 0.24155-0.71334 0.59559-0.94366 1.0618-0.2247 0.46063-0.33716 1.0111-0.33716 1.6515 0 0.64039 0.11246 1.1938 0.33716 1.66 0.23031 0.46063 0.54482 0.81441 0.94366 1.0616 0.40446 0.24155 0.86773 0.36234 1.3902 0.36234s0.98327-0.1208 1.3821-0.36234c0.40445-0.24717 0.71896-0.60095 0.94366-1.0616 0.23031-0.46625 0.34547-1.0196 0.34547-1.66 0-0.64039-0.11516-1.1908-0.34547-1.6515-0.2247-0.46625-0.53921-0.82029-0.94366-1.0618-0.39884-0.24717-0.85969-0.37066-1.3821-0.37066zm5.8261 0c-0.52242 0-0.98596 0.12349-1.3904 0.37066-0.39884 0.24155-0.71334 0.59559-0.94366 1.0618-0.2247 0.46063-0.33714 1.0111-0.33714 1.6515 0 0.64039 0.11244 1.1938 0.33714 1.66 0.23031 0.46063 0.54482 0.81441 0.94366 1.0616 0.40446 0.24155 0.868 0.36234 1.3904 0.36234 0.52242 0 0.98301-0.1208 1.3818-0.36234 0.40446-0.24717 0.71896-0.60095 0.94366-1.0616 0.23032-0.46625 0.34547-1.0196 0.34547-1.66 0-0.64039-0.11514-1.1908-0.34547-1.6515-0.2247-0.46625-0.53919-0.82029-0.94366-1.0618-0.39884-0.24717-0.85942-0.37066-1.3818-0.37066zm5.8258 0c-0.52242 0-0.98597 0.12349-1.3904 0.37066-0.39885 0.24155-0.71334 0.59559-0.94366 1.0618-0.2247 0.46063-0.33689 1.0111-0.33689 1.6515 0 0.64039 0.11219 1.1938 0.33689 1.66 0.23031 0.46063 0.54481 0.81441 0.94366 1.0616 0.40445 0.24155 0.868 0.36234 1.3904 0.36234s0.98301-0.1208 1.3818-0.36234c0.40446-0.24717 0.71896-0.60095 0.94366-1.0616 0.23031-0.46625 0.34572-1.0196 0.34572-1.66 0-0.64039-0.11541-1.1908-0.34572-1.6515-0.2247-0.46625-0.53919-0.82029-0.94366-1.0618-0.39884-0.24717-0.85942-0.37066-1.3818-0.37066zm5.8258 0c-0.52242 0-0.98571 0.12349-1.3902 0.37066-0.39885 0.24155-0.71361 0.59559-0.94392 1.0618-0.2247 0.46063-0.33689 1.0111-0.33689 1.6515 0 0.64039 0.11219 1.1938 0.33689 1.66 0.23031 0.46063 0.54507 0.81441 0.94392 1.0616 0.40445 0.24155 0.86773 0.36234 1.3902 0.36234s0.98301-0.1208 1.3818-0.36234c0.40446-0.24717 0.71922-0.60095 0.94392-1.0616 0.23031-0.46625 0.34545-1.0196 0.34545-1.66 0-0.64039-0.11514-1.1908-0.34545-1.6515-0.2247-0.46625-0.53946-0.82029-0.94392-1.0618-0.39884-0.24717-0.85942-0.37066-1.3818-0.37066zm8.3604 0c-0.52242 0-0.98592 0.12349-1.3904 0.37066-0.39884 0.24155-0.71333 0.59559-0.94366 1.0618-0.22469 0.46063-0.33714 1.0111-0.33714 1.6515 0 0.64039 0.11246 1.1938 0.33714 1.66 0.23032 0.46063 0.54482 0.81441 0.94366 1.0616 0.4045 0.24155 0.868 0.36234 1.3904 0.36234s0.98301-0.1208 1.3819-0.36234c0.40445-0.24717 0.71895-0.60095 0.94365-1.0616 0.23031-0.46625 0.34546-1.0196 0.34546-1.66 0-0.64039-0.11514-1.1908-0.34546-1.6515-0.2247-0.46625-0.53921-0.82029-0.94365-1.0618-0.39885-0.24717-0.85943-0.37066-1.3819-0.37066zm12.787 0c-0.52243 0-0.98571 0.12349-1.3902 0.37066-0.39883 0.24155-0.7136 0.59559-0.9439 1.0618-0.2247 0.46063-0.33689 1.0111-0.33689 1.6515 0 0.64039 0.11219 1.1938 0.33689 1.66 0.23031 0.46063 0.54507 0.81441 0.9439 1.0616 0.40446 0.24155 0.86774 0.36234 1.3902 0.36234 0.52241 0 0.98326-0.1208 1.3821-0.36234 0.4045-0.24717 0.71897-0.60095 0.94367-1.0616 0.23031-0.46625 0.34545-1.0196 0.34545-1.66 0-0.64039-0.11514-1.1908-0.34545-1.6515-0.2247-0.46625-0.53916-0.82029-0.94367-1.0618-0.39884-0.24717-0.85969-0.37066-1.3821-0.37066zm9.2656 0c-0.52241 0-0.98596 0.12349-1.3904 0.37066-0.39885 0.24155-0.71334 0.59559-0.94366 1.0618-0.2247 0.46063-0.33715 1.0111-0.33715 1.6515 0 0.64039 0.11246 1.1938 0.33715 1.66 0.23031 0.46063 0.5448 0.81441 0.94366 1.0616 0.40445 0.24155 0.868 0.36234 1.3904 0.36234 0.52244 0 0.98302-0.1208 1.3819-0.36234 0.40445-0.24717 0.71895-0.60095 0.94365-1.0616 0.23031-0.46625 0.34546-1.0196 0.34546-1.66 0-0.64039-0.11514-1.1908-0.34546-1.6515-0.2247-0.46625-0.53921-0.82029-0.94365-1.0618-0.39884-0.24717-0.85942-0.37066-1.3819-0.37066zm5.8258 0c-0.52243 0-0.98596 0.12349-1.3904 0.37066-0.39883 0.24155-0.71334 0.59559-0.94365 1.0618-0.2247 0.46063-0.33689 1.0111-0.33689 1.6515 0 0.64039 0.11219 1.1938 0.33689 1.66 0.23031 0.46063 0.54482 0.81441 0.94365 1.0616 0.40446 0.24155 0.868 0.36234 1.3904 0.36234 0.52242 0 0.983-0.1208 1.3818-0.36234 0.40446-0.24717 0.71922-0.60095 0.94392-1.0616 0.23031-0.46625 0.34545-1.0196 0.34545-1.66 0-0.64039-0.11514-1.1908-0.34545-1.6515-0.2247-0.46625-0.53946-0.82029-0.94392-1.0618-0.39884-0.24717-0.85942-0.37066-1.3818-0.37066zm5.8258 0c-0.52242 0-0.98569 0.12349-1.3902 0.37066-0.39884 0.24155-0.7136 0.59559-0.94392 1.0618-0.2247 0.46063-0.33689 1.0111-0.33689 1.6515 0 0.64039 0.11219 1.1938 0.33689 1.66 0.23033 0.46063 0.54509 0.81441 0.94392 1.0616 0.40446 0.24155 0.86773 0.36234 1.3902 0.36234 0.52243 0 0.98328-0.1208 1.3821-0.36234 0.40445-0.24717 0.71896-0.60095 0.94366-1.0616 0.23031-0.46625 0.34546-1.0196 0.34546-1.66 0-0.64039-0.11516-1.1908-0.34546-1.6515-0.2247-0.46625-0.53921-0.82029-0.94366-1.0618-0.39883-0.24717-0.85968-0.37066-1.3821-0.37066zm-71.764 0.13481v1.4998h1.0112v4.3985h1.9886v-5.8983zm40.929 0v1.4998h1.0112v4.3985h1.9886v-5.8983zm3.5219 0v1.4998h1.0112v4.3985h1.9886v-5.8983zm9.2656 0v1.4998h1.0112v4.3985h1.9883v-5.8983zm-62.413 1.4577c0.44939 0 0.6743 0.49717 0.6743 1.4915 0 0.99429-0.22491 1.4915-0.6743 1.4915-0.4494 0-0.67404-0.49717-0.67404-1.4915 0-0.99429 0.22465-1.4915 0.67404-1.4915zm5.8261 0c0.44939 0 0.67403 0.49717 0.67403 1.4915 0 0.99429-0.22465 1.4915-0.67403 1.4915-0.4494 0-0.67404-0.49717-0.67404-1.4915 0-0.99429 0.22465-1.4915 0.67404-1.4915zm9.2654 0c0.4494 0 0.67403 0.49717 0.67403 1.4915 0 0.99429-0.22463 1.4915-0.67403 1.4915s-0.67404-0.49717-0.67404-1.4915c0-0.99429 0.22465-1.4915 0.67404-1.4915zm5.8258 0c0.4494 0 0.6743 0.49717 0.6743 1.4915 0 0.99429-0.2249 1.4915-0.6743 1.4915s-0.67403-0.49717-0.67403-1.4915c0-0.99429 0.22463-1.4915 0.67403-1.4915zm5.8261 0c0.4494 0 0.67405 0.49717 0.67405 1.4915 0 0.99429-0.22465 1.4915-0.67405 1.4915s-0.67403-0.49717-0.67403-1.4915c0-0.99429 0.22463-1.4915 0.67403-1.4915zm5.8258 0c0.4494 0 0.67403 0.49717 0.67403 1.4915 0 0.99429-0.22463 1.4915-0.67403 1.4915s-0.67404-0.49717-0.67404-1.4915c0-0.99429 0.22465-1.4915 0.67404-1.4915zm5.8258 0c0.4494 0 0.6743 0.49717 0.6743 1.4915 0 0.99429-0.2249 1.4915-0.6743 1.4915s-0.67404-0.49717-0.67404-1.4915c0-0.99429 0.22465-1.4915 0.67404-1.4915zm8.3604 0c0.4494 0 0.67404 0.49717 0.67404 1.4915 0 0.99429-0.22465 1.4915-0.67404 1.4915-0.44939 0-0.67403-0.49717-0.67403-1.4915 0-0.99429 0.22465-1.4915 0.67403-1.4915zm12.787 0c0.44938 0 0.67429 0.49717 0.67429 1.4915 0 0.99429-0.22491 1.4915-0.67429 1.4915-0.4494 0-0.67405-0.49717-0.67405-1.4915 0-0.99429 0.22465-1.4915 0.67405-1.4915zm9.2656 0c0.4494 0 0.67405 0.49717 0.67405 1.4915 0 0.99429-0.22465 1.4915-0.67405 1.4915-0.44938 0-0.67403-0.49717-0.67403-1.4915 0-0.99429 0.22464-1.4915 0.67403-1.4915zm5.8258 0c0.4494 0 0.67403 0.49717 0.67403 1.4915 0 0.99429-0.22463 1.4915-0.67403 1.4915s-0.67405-0.49717-0.67405-1.4915c0-0.99429 0.22465-1.4915 0.67405-1.4915zm5.8258 0c0.4494 0 0.6743 0.49717 0.6743 1.4915 0 0.99429-0.2249 1.4915-0.6743 1.4915s-0.67403-0.49717-0.67403-1.4915c0-0.99429 0.22463-1.4915 0.67403-1.4915zm-80.46 8.9971c-0.52242 0-0.98571 0.12375-1.3902 0.37092-0.39884 0.24155-0.71334 0.59533-0.94366 1.0616-0.2247 0.46063-0.33714 1.0111-0.33714 1.6515 0 0.64039 0.11244 1.1938 0.33714 1.66 0.23031 0.46063 0.54482 0.81441 0.94366 1.0616 0.40446 0.24155 0.86774 0.36234 1.3902 0.36234s0.98326-0.1208 1.3821-0.36234c0.40446-0.24717 0.71897-0.60095 0.94366-1.0616 0.23033-0.46625 0.34547-1.0196 0.34547-1.66 0-0.64039-0.11514-1.1908-0.34547-1.6515-0.22469-0.46625-0.53919-0.82003-0.94366-1.0616-0.39884-0.24717-0.85967-0.37092-1.3821-0.37092zm12.788 0c-0.52242 0-0.98596 0.12375-1.3904 0.37092-0.39884 0.24155-0.71334 0.59533-0.94366 1.0616-0.2247 0.46063-0.33716 1.0111-0.33716 1.6515 0 0.64039 0.11246 1.1938 0.33716 1.66 0.23031 0.46063 0.54482 0.81441 0.94366 1.0616 0.40446 0.24155 0.868 0.36234 1.3904 0.36234 0.52241 0 0.98299-0.1208 1.3818-0.36234 0.40445-0.24717 0.71896-0.60095 0.94366-1.0616 0.23031-0.46625 0.34546-1.0196 0.34546-1.66 0-0.64039-0.11514-1.1908-0.34546-1.6515-0.2247-0.46625-0.53921-0.82003-0.94366-1.0616-0.39885-0.24717-0.85943-0.37092-1.3818-0.37092zm9.2654 0c-0.52242 0-0.98571 0.12375-1.3902 0.37092-0.39884 0.24155-0.71361 0.59533-0.94392 1.0616-0.2247 0.46063-0.33689 1.0111-0.33689 1.6515 0 0.64039 0.11219 1.1938 0.33689 1.66 0.23031 0.46063 0.54508 0.81441 0.94392 1.0616 0.40445 0.24155 0.86773 0.36234 1.3902 0.36234 0.52242 0 0.98301-0.1208 1.3818-0.36234 0.40446-0.24717 0.71922-0.60095 0.94392-1.0616 0.23031-0.46625 0.34545-1.0196 0.34545-1.66 0-0.64039-0.11514-1.1908-0.34545-1.6515-0.2247-0.46625-0.53946-0.82003-0.94392-1.0616-0.39884-0.24717-0.85942-0.37092-1.3818-0.37092zm5.8261 0c-0.52242 0-0.98596 0.12375-1.3904 0.37092-0.39884 0.24155-0.71334 0.59533-0.94366 1.0616-0.2247 0.46063-0.33716 1.0111-0.33716 1.6515 0 0.64039 0.11246 1.1938 0.33716 1.66 0.23031 0.46063 0.54482 0.81441 0.94366 1.0616 0.40446 0.24155 0.868 0.36234 1.3904 0.36234s0.98301-0.1208 1.3818-0.36234c0.40446-0.24717 0.71896-0.60095 0.94366-1.0616 0.23032-0.46625 0.34547-1.0196 0.34547-1.66 0-0.64039-0.11514-1.1908-0.34547-1.6515-0.2247-0.46625-0.53919-0.82003-0.94366-1.0616-0.39884-0.24717-0.85942-0.37092-1.3818-0.37092zm11.8 0c-0.52241 0-0.98569 0.12375-1.3902 0.37092-0.39884 0.24155-0.7136 0.59533-0.94391 1.0616-0.2247 0.46063-0.33689 1.0111-0.33689 1.6515 0 0.64039 0.11219 1.1938 0.33689 1.66 0.23031 0.46063 0.54507 0.81441 0.94391 1.0616 0.40446 0.24155 0.86774 0.36234 1.3902 0.36234 0.52242 0 0.98327-0.1208 1.3821-0.36234 0.40445-0.24717 0.71896-0.60095 0.94366-1.0616 0.23031-0.46625 0.34547-1.0196 0.34547-1.66 0-0.64039-0.11516-1.1908-0.34547-1.6515-0.2247-0.46625-0.53921-0.82003-0.94366-1.0616-0.39884-0.24717-0.85968-0.37092-1.3821-0.37092zm16.309 0c-0.52244 0-0.98597 0.12375-1.3904 0.37092-0.39884 0.24155-0.71334 0.59533-0.94366 1.0616-0.2247 0.46063-0.33716 1.0111-0.33716 1.6515 0 0.64039 0.11246 1.1938 0.33716 1.66 0.23031 0.46063 0.54482 0.81441 0.94366 1.0616 0.40445 0.24155 0.86798 0.36234 1.3904 0.36234 0.52241 0 0.98301-0.1208 1.3818-0.36234 0.40446-0.24717 0.71896-0.60095 0.94366-1.0616 0.23031-0.46625 0.34545-1.0196 0.34545-1.66 0-0.64039-0.11514-1.1908-0.34545-1.6515-0.2247-0.46625-0.5392-0.82003-0.94366-1.0616-0.39883-0.24717-0.85943-0.37092-1.3818-0.37092zm5.8258 0c-0.52242 0-0.98596 0.12375-1.3904 0.37092-0.39883 0.24155-0.71334 0.59533-0.94365 1.0616-0.2247 0.46063-0.33714 1.0111-0.33714 1.6515 0 0.64039 0.11244 1.1938 0.33714 1.66 0.23031 0.46063 0.54482 0.81441 0.94365 1.0616 0.40446 0.24155 0.868 0.36234 1.3904 0.36234s0.983-0.1208 1.3818-0.36234c0.40446-0.24717 0.71897-0.60095 0.94365-1.0616 0.23031-0.46625 0.34547-1.0196 0.34547-1.66 0-0.64039-0.11516-1.1908-0.34547-1.6515-0.22468-0.46625-0.5392-0.82003-0.94365-1.0616-0.39884-0.24717-0.85942-0.37092-1.3818-0.37092zm9.2654 0c-0.52242 0-0.98569 0.12375-1.3902 0.37092-0.39884 0.24155-0.7136 0.59533-0.94392 1.0616-0.22468 0.46063-0.33689 1.0111-0.33689 1.6515 0 0.64039 0.1122 1.1938 0.33689 1.66 0.23032 0.46063 0.54509 0.81441 0.94392 1.0616 0.40446 0.24155 0.86773 0.36234 1.3902 0.36234 0.52242 0 0.98326-0.1208 1.3821-0.36234 0.40446-0.24717 0.71895-0.60095 0.94365-1.0616 0.23031-0.46625 0.34547-1.0196 0.34547-1.66 0-0.64039-0.11515-1.1908-0.34547-1.6515-0.2247-0.46625-0.53919-0.82003-0.94365-1.0616-0.39885-0.24717-0.85969-0.37092-1.3821-0.37092zm-68.209 0.13481v1.5h1.0112v4.3983h1.9886v-5.8983zm3.5219 0v1.5h1.0112v4.3983h1.9884v-5.8983zm9.2654 0v1.5h1.0112v4.3983h1.9886v-5.8983zm15.091 0v1.5h1.0112v4.3983h1.9886v-5.8983zm11.8 0v1.5h1.0112v4.3983h1.9884v-5.8983zm3.5219 0v1.5h1.0112v4.3983h1.9883v-5.8983zm3.5219 0v1.5h1.0109v4.3983h1.9886v-5.8983zm15.091 0v1.5h1.0112v4.3983h1.9886v-5.8983zm-64.684 1.4577c0.44939 0 0.6743 0.49717 0.6743 1.4915 0 0.99429-0.22491 1.4915-0.6743 1.4915-0.4494 0-0.67404-0.49717-0.67404-1.4915 0-0.99429 0.22465-1.4915 0.67404-1.4915zm12.788 0c0.4494 0 0.67403 0.49717 0.67403 1.4915 0 0.99429-0.22463 1.4915-0.67403 1.4915s-0.67404-0.49717-0.67404-1.4915c0-0.99429 0.22465-1.4915 0.67404-1.4915zm9.2654 0c0.44939 0 0.67403 0.49717 0.67403 1.4915 0 0.99429-0.22465 1.4915-0.67403 1.4915-0.4494 0-0.67405-0.49717-0.67405-1.4915 0-0.99429 0.22465-1.4915 0.67405-1.4915zm5.8261 0c0.44939 0 0.67403 0.49717 0.67403 1.4915 0 0.99429-0.22465 1.4915-0.67403 1.4915-0.4494 0-0.6743-0.49717-0.6743-1.4915 0-0.99429 0.2249-1.4915 0.6743-1.4915zm11.8 0c0.4494 0 0.67427 0.49717 0.67431 1.4915 0 0.99429-0.22491 1.4915-0.67431 1.4915-0.44939 0-0.67403-0.49717-0.67403-1.4915 0-0.99429 0.22465-1.4915 0.67403-1.4915zm16.309 0c0.44939 0 0.67403 0.49717 0.67403 1.4915 0 0.99429-0.22464 1.4915-0.67403 1.4915-0.4494 0-0.67431-0.49717-0.67431-1.4915 0-0.99429 0.22491-1.4915 0.67431-1.4915zm5.8258 0c0.4494 0 0.67404 0.49717 0.67404 1.4915 0 0.99429-0.22464 1.4915-0.67404 1.4915s-0.67405-0.49717-0.67405-1.4915c0-0.99429 0.22465-1.4915 0.67405-1.4915zm9.2654 0c0.4494 0 0.6743 0.49717 0.6743 1.4915 0 0.99429-0.2249 1.4915-0.6743 1.4915s-0.67403-0.49717-0.67403-1.4915c0-0.99429 0.22463-1.4915 0.67403-1.4915zm-71.079 8.9973c-0.52242 0-0.98571 0.12349-1.3902 0.37066-0.39884 0.24155-0.71334 0.5956-0.94366 1.0618-0.2247 0.46063-0.33714 1.0111-0.33714 1.6515 0 0.64039 0.11244 1.1938 0.33714 1.66 0.23031 0.46063 0.54482 0.81441 0.94366 1.0616 0.40446 0.24155 0.86774 0.36235 1.3902 0.36235s0.98326-0.12079 1.3821-0.36235c0.40446-0.24717 0.71897-0.60095 0.94366-1.0616 0.23033-0.46625 0.34547-1.0196 0.34547-1.66 0-0.64039-0.11514-1.1908-0.34547-1.6515-0.22469-0.46625-0.53919-0.82029-0.94366-1.0618-0.39884-0.24716-0.85967-0.37066-1.3821-0.37066zm12.788 0c-0.52242 0-0.98596 0.12349-1.3904 0.37066-0.39884 0.24155-0.71334 0.5956-0.94366 1.0618-0.2247 0.46063-0.33716 1.0111-0.33716 1.6515 0 0.64039 0.11246 1.1938 0.33716 1.66 0.23031 0.46063 0.54482 0.81441 0.94366 1.0616 0.40446 0.24155 0.868 0.36235 1.3904 0.36235 0.52241 0 0.98299-0.12079 1.3818-0.36235 0.40445-0.24717 0.71896-0.60095 0.94366-1.0616 0.23031-0.46625 0.34546-1.0196 0.34546-1.66 0-0.64039-0.11514-1.1908-0.34546-1.6515-0.2247-0.46625-0.53921-0.82029-0.94366-1.0618-0.39885-0.24716-0.85943-0.37066-1.3818-0.37066zm5.8258 0c-0.52242 0-0.98571 0.12349-1.3902 0.37066-0.39884 0.24155-0.7136 0.5956-0.94392 1.0618-0.2247 0.46063-0.33689 1.0111-0.33689 1.6515 0 0.64039 0.11219 1.1938 0.33689 1.66 0.23032 0.46063 0.54508 0.81441 0.94392 1.0616 0.40445 0.24155 0.86773 0.36235 1.3902 0.36235 0.52242 0 0.98301-0.12079 1.3818-0.36235 0.40446-0.24717 0.71922-0.60095 0.94392-1.0616 0.23031-0.46625 0.34545-1.0196 0.34545-1.66 0-0.64039-0.11514-1.1908-0.34545-1.6515-0.2247-0.46625-0.53946-0.82029-0.94392-1.0618-0.39884-0.24716-0.85942-0.37066-1.3818-0.37066zm9.2656 0c-0.52242 0-0.98596 0.12349-1.3904 0.37066-0.39884 0.24155-0.71334 0.5956-0.94366 1.0618-0.2247 0.46063-0.33716 1.0111-0.33716 1.6515 0 0.64039 0.11246 1.1938 0.33716 1.66 0.23031 0.46063 0.54482 0.81441 0.94366 1.0616 0.40446 0.24155 0.868 0.36235 1.3904 0.36235s0.98301-0.12079 1.3818-0.36235c0.40446-0.24717 0.71896-0.60095 0.94366-1.0616 0.23032-0.46625 0.34547-1.0196 0.34547-1.66 0-0.64039-0.11514-1.1908-0.34547-1.6515-0.2247-0.46625-0.53919-0.82029-0.94366-1.0618-0.39884-0.24716-0.85942-0.37066-1.3818-0.37066zm11.8 0c-0.52241 0-0.98569 0.12349-1.3902 0.37066-0.39884 0.24155-0.7136 0.5956-0.94391 1.0618-0.2247 0.46063-0.33689 1.0111-0.33689 1.6515 0 0.64039 0.11219 1.1938 0.33689 1.66 0.23031 0.46063 0.54507 0.81441 0.94391 1.0616 0.40446 0.24155 0.86774 0.36235 1.3902 0.36235 0.52242 0 0.98327-0.12079 1.3821-0.36235 0.40445-0.24717 0.71896-0.60095 0.94366-1.0616 0.23031-0.46625 0.34547-1.0196 0.34547-1.66 0-0.64039-0.11516-1.1908-0.34547-1.6515-0.2247-0.46625-0.53921-0.82029-0.94366-1.0618-0.39884-0.24716-0.85968-0.37066-1.3821-0.37066zm5.8261 0c-0.52241 0-0.98596 0.12349-1.3904 0.37066-0.39885 0.24155-0.7133 0.5956-0.94367 1.0618-0.22469 0.46063-0.33714 1.0111-0.33714 1.6515 0 0.64039 0.11246 1.1938 0.33714 1.66 0.23036 0.46063 0.54482 0.81441 0.94367 1.0616 0.40445 0.24155 0.868 0.36235 1.3904 0.36235 0.52242 0 0.98301-0.12079 1.3819-0.36235 0.40445-0.24717 0.71895-0.60095 0.94365-1.0616 0.23031-0.46625 0.34546-1.0196 0.34546-1.66 0-0.64039-0.11514-1.1908-0.34546-1.6515-0.2247-0.46625-0.5392-0.82029-0.94365-1.0618-0.39885-0.24716-0.85943-0.37066-1.3819-0.37066zm9.2654 0c-0.52243 0-0.98597 0.12349-1.3904 0.37066-0.39885 0.24155-0.71334 0.5956-0.94365 1.0618-0.22471 0.46063-0.33689 1.0111-0.33689 1.6515 0 0.64039 0.11218 1.1938 0.33689 1.66 0.23031 0.46063 0.5448 0.81441 0.94365 1.0616 0.40445 0.24155 0.86799 0.36235 1.3904 0.36235 0.52243 0 0.98301-0.12079 1.3818-0.36235 0.40446-0.24717 0.71923-0.60095 0.94391-1.0616 0.23032-0.46625 0.34547-1.0196 0.34547-1.66 0-0.64039-0.11514-1.1908-0.34547-1.6515-0.22468-0.46625-0.53945-0.82029-0.94391-1.0618-0.39883-0.24716-0.85942-0.37066-1.3818-0.37066zm5.8258 0c-0.52242 0-0.9857 0.12349-1.3902 0.37066-0.39885 0.24155-0.71361 0.5956-0.94392 1.0618-0.2247 0.46063-0.33689 1.0111-0.33689 1.6515 0 0.64039 0.11219 1.1938 0.33689 1.66 0.23031 0.46063 0.54507 0.81441 0.94392 1.0616 0.40445 0.24155 0.86773 0.36235 1.3902 0.36235 0.52242 0 0.98327-0.12079 1.3821-0.36235 0.40445-0.24717 0.71895-0.60095 0.94365-1.0616 0.23031-0.46625 0.34546-1.0196 0.34546-1.66 0-0.64039-0.11514-1.1908-0.34546-1.6515-0.2247-0.46625-0.5392-0.82029-0.94365-1.0618-0.39884-0.24716-0.85969-0.37066-1.3821-0.37066zm5.8261 0c-0.52243 0-0.98596 0.12349-1.3904 0.37066-0.39883 0.24155-0.71334 0.5956-0.94365 1.0618-0.2247 0.46063-0.33712 1.0111-0.33716 1.6515 5.1e-5 0.64039 0.11246 1.1938 0.33716 1.66 0.23031 0.46063 0.54482 0.81441 0.94365 1.0616 0.40446 0.24155 0.868 0.36235 1.3904 0.36235 0.52242 0 0.983-0.12079 1.3818-0.36235 0.40446-0.24717 0.71895-0.60095 0.94365-1.0616 0.23032-0.46625 0.34547-1.0196 0.34547-1.66 0-0.64039-0.11514-1.1908-0.34547-1.6515-0.2247-0.46625-0.5392-0.82029-0.94365-1.0618-0.39884-0.24716-0.85942-0.37066-1.3818-0.37066zm5.8258 0c-0.52241 0-0.98596 0.12349-1.3904 0.37066-0.39889 0.24155-0.71334 0.5956-0.94367 1.0618-0.2247 0.46063-0.33714 1.0111-0.33714 1.6515 0 0.64039 0.11244 1.1938 0.33714 1.66 0.23032 0.46063 0.54478 0.81441 0.94367 1.0616 0.40445 0.24155 0.868 0.36235 1.3904 0.36235 0.52242 0 0.98301-0.12079 1.3819-0.36235 0.40445-0.24717 0.71895-0.60095 0.94365-1.0616 0.23031-0.46625 0.34545-1.0196 0.34545-1.66 0-0.64039-0.11514-1.1908-0.34545-1.6515-0.2247-0.46625-0.53921-0.82029-0.94365-1.0618-0.39885-0.24716-0.85944-0.37066-1.3819-0.37066zm5.8258 0c-0.52242 0-0.9857 0.12349-1.3902 0.37066-0.39883 0.24155-0.7136 0.5956-0.9439 1.0618-0.2247 0.46063-0.33689 1.0111-0.33689 1.6515 0 0.64039 0.11219 1.1938 0.33689 1.66 0.23031 0.46063 0.54507 0.81441 0.9439 1.0616 0.40446 0.24155 0.86774 0.36235 1.3902 0.36235 0.52243 0 0.98301-0.12079 1.3818-0.36235 0.40446-0.24717 0.71919-0.60095 0.94392-1.0616 0.23031-0.46625 0.34545-1.0196 0.34545-1.66 0-0.64039-0.11514-1.1908-0.34545-1.6515-0.22474-0.46625-0.53946-0.82029-0.94392-1.0618-0.39883-0.24716-0.85942-0.37066-1.3818-0.37066zm-75.203 0.13481v1.4998h1.0112v4.3985h1.9886v-5.8983zm3.5219 0v1.4998h1.0112v4.3985h1.9884v-5.8983zm15.091 0v1.4998h1.0109v4.3985h1.9886v-5.8983zm9.2654 0v1.4998h1.0112v4.3985h1.9886v-5.8983zm17.626 0v1.4998h1.0112v4.3985h1.9886v-5.8983zm-48.375 1.4577c0.44939 0 0.6743 0.49718 0.6743 1.4915 0 0.99428-0.22491 1.4915-0.6743 1.4915-0.4494 0-0.67404-0.49718-0.67404-1.4915 0-0.99429 0.22465-1.4915 0.67404-1.4915zm12.788 0c0.4494 0 0.67403 0.49718 0.67403 1.4915 0 0.99428-0.22463 1.4915-0.67403 1.4915s-0.67404-0.49718-0.67404-1.4915c0-0.99429 0.22465-1.4915 0.67404-1.4915zm5.8258 0c0.4494 0 0.67404 0.49718 0.67404 1.4915 0 0.99428-0.22465 1.4915-0.67404 1.4915-0.44939 0-0.67405-0.49718-0.67405-1.4915 0-0.99429 0.22466-1.4915 0.67405-1.4915zm9.2656 0c0.44939 0 0.67403 0.49718 0.67403 1.4915 0 0.99428-0.22465 1.4915-0.67403 1.4915-0.4494 0-0.6743-0.49718-0.6743-1.4915 0-0.99429 0.2249-1.4915 0.6743-1.4915zm11.8 0c0.4494 0 0.67427 0.49718 0.67431 1.4915 0 0.99428-0.22491 1.4915-0.67431 1.4915-0.44939 0-0.67403-0.49718-0.67403-1.4915 0-0.99429 0.22465-1.4915 0.67403-1.4915zm5.8261 0c0.4494 0 0.67405 0.49718 0.67405 1.4915 0 0.99428-0.22465 1.4915-0.67405 1.4915-0.44939 0-0.6743-0.49718-0.6743-1.4915 0-0.99429 0.22491-1.4915 0.6743-1.4915zm9.2654 0c0.44939 0 0.67403 0.49718 0.67403 1.4915 0 0.99428-0.22464 1.4915-0.67403 1.4915-0.4494 0-0.67404-0.49718-0.67404-1.4915 0-0.99429 0.22464-1.4915 0.67404-1.4915zm5.8258 0c0.4494 0 0.6743 0.49718 0.6743 1.4915 0 0.99428-0.2249 1.4915-0.6743 1.4915s-0.67404-0.49718-0.67404-1.4915c0-0.99429 0.22464-1.4915 0.67404-1.4915zm5.8261 0c0.4494 0 0.67403 0.49718 0.67403 1.4915 0 0.99428-0.22463 1.4915-0.67403 1.4915s-0.6743-0.49718-0.6743-1.4915c0-0.99429 0.2249-1.4915 0.6743-1.4915zm5.8258 0c0.4494 0 0.67405 0.49718 0.67405 1.4915 0 0.99428-0.22465 1.4915-0.67405 1.4915-0.44938 0-0.67403-0.49718-0.67403-1.4915 0-0.99429 0.22465-1.4915 0.67403-1.4915zm5.8258 0c0.4494 0 0.67403 0.49718 0.67403 1.4915 0 0.99428-0.22463 1.4915-0.67403 1.4915s-0.67404-0.49718-0.67404-1.4915c0-0.99429 0.22464-1.4915 0.67404-1.4915zm-78.074 8.9971c-0.52242 0-0.98571 0.12374-1.3902 0.37092-0.39884 0.24155-0.71334 0.59533-0.94366 1.0616-0.2247 0.46063-0.33714 1.0111-0.33714 1.6515 0 0.64039 0.11244 1.1938 0.33714 1.66 0.23031 0.46063 0.54482 0.81442 0.94366 1.0616 0.40446 0.24155 0.86774 0.36235 1.3902 0.36235s0.98326-0.12079 1.3821-0.36235c0.40446-0.24716 0.71897-0.60094 0.94366-1.0616 0.23033-0.46625 0.34547-1.0196 0.34547-1.66 0-0.64039-0.11514-1.1908-0.34547-1.6515-0.22469-0.46625-0.53919-0.82003-0.94366-1.0616-0.39884-0.24717-0.85967-0.37092-1.3821-0.37092zm12.788 0c-0.52242 0-0.98596 0.12374-1.3904 0.37092-0.39884 0.24155-0.71334 0.59533-0.94366 1.0616-0.2247 0.46063-0.33716 1.0111-0.33716 1.6515 0 0.64039 0.11246 1.1938 0.33716 1.66 0.23031 0.46063 0.54482 0.81442 0.94366 1.0616 0.40446 0.24155 0.868 0.36235 1.3904 0.36235 0.52241 0 0.98299-0.12079 1.3818-0.36235 0.40445-0.24716 0.71896-0.60094 0.94366-1.0616 0.23031-0.46625 0.34546-1.0196 0.34546-1.66 0-0.64039-0.11514-1.1908-0.34546-1.6515-0.2247-0.46625-0.53921-0.82003-0.94366-1.0616-0.39885-0.24717-0.85943-0.37092-1.3818-0.37092zm12.787 0c-0.52242 0-0.98571 0.12374-1.3902 0.37092-0.39884 0.24155-0.7136 0.59533-0.94392 1.0616-0.2247 0.46063-0.33689 1.0111-0.33689 1.6515 0 0.64039 0.11219 1.1938 0.33689 1.66 0.23032 0.46063 0.54509 0.81442 0.94392 1.0616 0.40445 0.24155 0.86773 0.36235 1.3902 0.36235 0.52242 0 0.98301-0.12079 1.3818-0.36235 0.40446-0.24716 0.71922-0.60094 0.94392-1.0616 0.23031-0.46625 0.34545-1.0196 0.34545-1.66 0-0.64039-0.11514-1.1908-0.34545-1.6515-0.2247-0.46625-0.53946-0.82003-0.94392-1.0616-0.39884-0.24717-0.85942-0.37092-1.3818-0.37092zm11.8 0c-0.52241 0-0.98596 0.12374-1.3904 0.37092-0.39884 0.24155-0.71334 0.59533-0.94366 1.0616-0.2247 0.46063-0.33689 1.0111-0.33689 1.6515 0 0.64039 0.11219 1.1938 0.33689 1.66 0.23031 0.46063 0.54482 0.81442 0.94366 1.0616 0.40446 0.24155 0.86801 0.36235 1.3904 0.36235 0.52242 0 0.98301-0.12079 1.3818-0.36235 0.40446-0.24716 0.71897-0.60094 0.94366-1.0616 0.23032-0.46625 0.34573-1.0196 0.34573-1.66 0-0.64039-0.11541-1.1908-0.34573-1.6515-0.22469-0.46625-0.53919-0.82003-0.94366-1.0616-0.39884-0.24717-0.85942-0.37092-1.3818-0.37092zm12.787 0c-0.52243 0-0.98571 0.12374-1.3902 0.37092-0.39882 0.24155-0.7136 0.59533-0.9439 1.0616-0.2247 0.46063-0.33689 1.0111-0.33689 1.6515 0 0.64039 0.11219 1.1938 0.33689 1.66 0.23031 0.46063 0.54508 0.81442 0.9439 1.0616 0.40446 0.24155 0.86774 0.36235 1.3902 0.36235 0.52242 0 0.98326-0.12079 1.3821-0.36235 0.40446-0.24716 0.71897-0.60094 0.94365-1.0616 0.23032-0.46625 0.34547-1.0196 0.34547-1.66 0-0.64039-0.11514-1.1908-0.34547-1.6515-0.22468-0.46625-0.53919-0.82003-0.94365-1.0616-0.39884-0.24717-0.85967-0.37092-1.3821-0.37092zm5.8261 0c-0.52244 0-0.98597 0.12374-1.3904 0.37092-0.39884 0.24155-0.71334 0.59533-0.94366 1.0616-0.2247 0.46063-0.33716 1.0111-0.33716 1.6515 0 0.64039 0.11246 1.1938 0.33716 1.66 0.23031 0.46063 0.54482 0.81442 0.94366 1.0616 0.40445 0.24155 0.86798 0.36235 1.3904 0.36235 0.52241 0 0.98301-0.12079 1.3818-0.36235 0.40446-0.24716 0.71896-0.60094 0.94366-1.0616 0.23031-0.46625 0.34545-1.0196 0.34545-1.66 0-0.64039-0.11514-1.1908-0.34545-1.6515-0.2247-0.46625-0.5392-0.82003-0.94366-1.0616-0.39883-0.24717-0.85943-0.37092-1.3818-0.37092zm9.2654 0c-0.52243 0-0.98596 0.12374-1.3904 0.37092-0.39883 0.24155-0.71334 0.59533-0.94365 1.0616-0.2247 0.46063-0.33689 1.0111-0.33689 1.6515 0 0.64039 0.11219 1.1938 0.33689 1.66 0.23031 0.46063 0.54482 0.81442 0.94365 1.0616 0.40446 0.24155 0.868 0.36235 1.3904 0.36235 0.52241 0 0.98299-0.12079 1.3818-0.36235 0.40446-0.24716 0.71922-0.60094 0.94392-1.0616 0.23031-0.46625 0.34545-1.0196 0.34545-1.66 0-0.64039-0.11514-1.1908-0.34545-1.6515-0.2247-0.46625-0.53946-0.82003-0.94392-1.0616-0.39885-0.24717-0.85944-0.37092-1.3818-0.37092zm-62.383 0.13481v1.5h1.0112v4.3983h1.9886v-5.8983zm3.5219 0v1.5h1.0112v4.3983h1.9884v-5.8983zm9.2654 0v1.5h1.0112v4.3983h1.9886v-5.8983zm3.5219 0v1.5h1.0112v4.3983h1.9886v-5.8983zm9.2656 0v1.5h1.0109v4.3983h1.9886v-5.8983zm11.8 0v1.5h1.0112v4.3983h1.9886v-5.8983zm3.5219 0v1.5h1.0112v4.3983h1.9886v-5.8983zm15.091 0v1.5h1.0112v4.3983h1.9886v-5.8983zm9.2656 0v1.5h1.0109v4.3983h1.9886v-5.8983zm-68.124 1.4577c0.44939 0 0.6743 0.49717 0.6743 1.4915 0 0.99429-0.22491 1.4915-0.6743 1.4915-0.4494 0-0.67404-0.49717-0.67404-1.4915 0-0.99429 0.22465-1.4915 0.67404-1.4915zm12.788 0c0.4494 0 0.67403 0.49717 0.67403 1.4915 0 0.99429-0.22463 1.4915-0.67403 1.4915s-0.67404-0.49717-0.67404-1.4915c0-0.99429 0.22465-1.4915 0.67404-1.4915zm12.787 0c0.4494 0 0.67404 0.49717 0.67404 1.4915 0 0.99429-0.22465 1.4915-0.67404 1.4915s-0.67404-0.49717-0.67404-1.4915c0-0.99429 0.22465-1.4915 0.67404-1.4915zm11.8 0c0.4494 0 0.67404 0.49717 0.67404 1.4915 0 0.99429-0.22465 1.4915-0.67404 1.4915-0.44939 0-0.67403-0.49717-0.67403-1.4915 0-0.99429 0.22465-1.4915 0.67403-1.4915zm12.787 0c0.44938 0 0.6743 0.49717 0.6743 1.4915 0 0.99429-0.22491 1.4915-0.6743 1.4915-0.4494 0-0.67405-0.49717-0.67405-1.4915 0-0.99429 0.22465-1.4915 0.67405-1.4915zm5.8261 0c0.44939 0 0.67403 0.49717 0.67403 1.4915 0 0.99429-0.22464 1.4915-0.67403 1.4915-0.4494 0-0.67431-0.49717-0.67431-1.4915 0-0.99429 0.22491-1.4915 0.67431-1.4915zm9.2654 0c0.4494 0 0.67403 0.49717 0.67403 1.4915 0 0.99429-0.22463 1.4915-0.67403 1.4915s-0.67405-0.49717-0.67405-1.4915c0-0.99429 0.22465-1.4915 0.67405-1.4915z" fill="#f9f9f9" style="white-space:pre"/>
</svg>
