<?xml version="1.0" encoding="UTF-8"?>
<svg width="125.85mm" height="134.46mm" version="1.1" viewBox="0 0 125.85 134.46" xmlns="http://www.w3.org/2000/svg" xmlns:cc="http://creativecommons.org/ns#" xmlns:dc="http://purl.org/dc/elements/1.1/" xmlns:rdf="http://www.w3.org/1999/02/22-rdf-syntax-ns#">
 <metadata>
  <rdf:RDF>
   <cc:Work rdf:about="">
    <dc:format>image/svg+xml</dc:format>
    <dc:type rdf:resource="http://purl.org/dc/dcmitype/StillImage"/>
    <dc:title/>
   </cc:Work>
  </rdf:RDF>
 </metadata>
 <g transform="translate(-217.94 -46.054)">
  <path transform="scale(.26458)" d="m1061.4 174.06a9.4504 9.4504 0 0 0-6.5684 2.8047 9.4504 9.4504 0 0 0-1.8457 2.6445l-228.37 489.31a9.4504 9.4504 0 0 0 8.5645 13.449h94.592a9.4504 9.4504 0 0 0 8.5625-5.4551l125.23-268.29 78.934 169.13h-76.586a9.4504 9.4504 0 0 0-8.5644 5.4551l-40.002 85.713a9.4504 9.4504 0 0 0 8.5625 13.449h266.02a9.4504 9.4504 0 0 0 8.5625-13.449l-228.37-489.31a9.4504 9.4504 0 0 0-1.9121-2.7109 9.4504 9.4504 0 0 0-6.8066-2.7383z" color="#000000" color-rendering="auto" dominant-baseline="auto" fill="#fff" image-rendering="auto" shape-rendering="auto" solid-color="#000000" stop-color="#000000" style="font-feature-settings:normal;font-variant-alternates:normal;font-variant-caps:normal;font-variant-east-asian:normal;font-variant-ligatures:normal;font-variant-numeric:normal;font-variant-position:normal;font-variation-settings:normal;inline-size:0;isolation:auto;mix-blend-mode:normal;shape-margin:0;shape-padding:0;text-decoration-color:#000000;text-decoration-line:none;text-decoration-style:solid;text-indent:0;text-orientation:mixed;text-transform:none;white-space:normal"/>
 </g>
</svg>
